<svg width="800" height="800" viewBox="0 0 800 800" fill="none" xmlns="http://www.w3.org/2000/svg">
<path d="M500.22 108.536C561.61 95.2457 637.77 95.91 741.41 121.756C759.27 126.21 770.127 144.264 765.663 162.08C761.2 179.897 743.103 190.73 725.243 186.276C628.887 162.247 563.383 162.916 514.36 173.529C465.183 184.175 429.833 205.289 392.383 228.121L389.58 229.831C353.48 251.855 313.505 276.243 260.691 285.023C205.911 294.129 141.201 286.078 54.2944 251.396C37.2024 244.575 28.8892 225.222 35.7267 208.171C42.564 191.12 61.963 182.826 79.055 189.648C158.812 221.477 210.765 225.9 249.733 219.422C289.296 212.845 319.458 194.639 357.62 171.373C395.167 148.482 438.98 121.793 500.22 108.536Z" fill="#43AEFC"/>
<path d="M741.41 254.767C637.77 228.922 561.61 228.257 500.22 241.547C438.98 254.805 395.167 281.493 357.62 304.384C319.458 327.65 289.296 345.857 249.733 352.433C210.765 358.91 158.812 354.487 79.055 322.659C61.963 315.838 42.564 324.131 35.7267 341.183C28.8892 358.233 37.2024 377.587 54.2944 384.407C141.201 419.09 205.911 427.14 260.691 418.033C313.505 409.253 353.48 384.867 389.58 362.843L392.383 361.133C429.833 338.3 465.183 317.186 514.36 306.54C563.383 295.927 628.887 295.259 725.243 319.288C743.103 323.741 761.2 312.909 765.663 295.092C770.127 277.275 759.27 259.221 741.41 254.767Z" fill="#43AEFC"/>
<path fill-rule="evenodd" clip-rule="evenodd" d="M633.327 334.22C621.753 334.22 612.11 340.197 605.38 349.24C603.017 352.433 597.553 359.907 590.297 370.367C580.643 384.277 567.723 403.607 554.747 425.183C541.833 446.653 528.51 470.933 518.317 494.657C508.557 517.377 499.963 542.047 499.997 567.057C500.02 574.077 500.86 581.13 502.013 588.04C503.94 599.573 507.853 615.453 516.013 631.737C524.24 648.153 537.103 665.58 557.023 678.827C577.153 692.213 602.493 700 633.327 700C664.16 700 689.5 692.213 709.627 678.827C729.547 665.58 742.413 648.153 750.64 631.74C758.8 615.453 762.717 599.573 764.643 588.043C765.8 581.123 766.65 574.05 766.66 567.023C766.67 542.013 758.1 517.38 748.337 494.657C738.147 470.933 724.823 446.653 711.91 425.183C698.933 403.607 686.01 384.277 676.357 370.367C669.1 359.907 663.633 352.433 661.273 349.24C654.543 340.197 644.897 334.22 633.327 334.22ZM687.063 520.857C678.507 500.937 666.83 479.493 654.743 459.4C647.393 447.18 640.023 435.673 633.327 425.58C626.63 435.673 619.26 447.18 611.91 459.4C599.827 479.493 588.15 500.937 579.593 520.857L579.107 521.983C573.217 535.68 566.257 551.873 566.67 567.003C567.07 578.97 570.293 591.323 575.643 601.997C579.913 610.523 585.8 618.037 594.003 623.493C602 628.81 614.16 633.493 633.327 633.493C652.493 633.493 664.653 628.81 672.65 623.493C680.853 618.037 686.74 610.52 691.013 601.997C696.363 591.323 699.587 578.97 699.987 567C700.403 551.877 693.44 535.683 687.55 521.99L687.063 520.857Z" fill="#43AEFC"/>
<path d="M470.987 384.36C496.33 376.157 515.76 402.533 503.843 426.307C498.4 437.17 492.277 446.413 480.103 450.713C447.533 462.22 420.553 478.423 392.383 495.597L389.58 497.307C353.48 519.33 313.505 543.717 260.691 552.497C205.912 561.603 141.201 553.553 54.2947 518.87C37.2027 512.05 28.8896 492.697 35.727 475.647C42.5647 458.593 61.9633 450.3 79.0557 457.123C158.812 488.95 210.766 493.373 249.734 486.897C289.296 480.32 319.458 462.113 357.62 438.847C393.887 416.737 431.21 397.237 470.987 384.36Z" fill="#43AEFC"/>
</svg>
