<svg width="800" height="800" viewBox="0 0 800 800" fill="none" xmlns="http://www.w3.org/2000/svg">
<path d="M391.833 778.808L391.83 778.804C386.527 771.596 321.048 682.119 256.93 576.13C224.865 523.125 193.241 466.155 169.659 413.378C145.947 360.307 130.875 312.561 130.875 277.636C130.875 129.247 251.605 8.5 399.988 8.5C548.375 8.5 669.126 129.248 669.126 277.636C669.126 312.561 654.054 360.307 630.341 413.378C606.761 466.155 575.137 523.125 543.073 576.13C478.955 682.12 413.476 771.596 408.172 778.802L408.166 778.81L400.003 789.926L391.833 778.808ZM384.983 783.841L394.992 797.463L415.017 783.841C425.748 769.262 677.626 424.99 677.626 277.636C677.626 124.554 553.07 0 399.988 0C246.91 0 122.375 124.554 122.375 277.636C122.375 424.99 374.258 769.262 384.983 783.841ZM507.936 277.636C507.936 218.095 459.531 169.687 399.988 169.687C340.477 169.687 292.039 218.093 292.039 277.636C292.039 337.148 340.478 385.584 399.988 385.584C459.53 385.584 507.936 337.146 507.936 277.636Z" stroke="black" stroke-width="17"/>
<rect width="800" height="800" stroke="black"/>
</svg>
