<svg width="800" height="800" viewBox="0 0 800 800" fill="none" xmlns="http://www.w3.org/2000/svg">
<path d="M266.667 533.327C248.257 533.327 233.333 548.25 233.333 566.66C233.333 585.07 248.257 599.993 266.667 599.993C285.076 599.993 300 585.07 300 566.66C300 548.25 285.076 533.327 266.667 533.327ZM266.667 533.327L266.902 400M266.667 566.66L266.902 566.897M666.667 166.667C666.667 203.486 636.82 233.333 600 233.333C563.18 233.333 533.333 203.486 533.333 166.667C533.333 129.848 563.18 100 600 100C636.82 100 666.667 129.848 666.667 166.667ZM400 566.66C400 640.3 340.303 699.993 266.667 699.993C193.029 699.993 133.333 640.3 133.333 566.66C133.333 532.847 145.921 501.97 166.667 478.467V200C166.667 144.772 211.438 100 266.667 100C321.895 100 366.667 144.772 366.667 200V478.467C387.413 501.97 400 532.847 400 566.66Z" stroke="#43AEFC" stroke-width="66.6667" stroke-linecap="round" stroke-linejoin="round"/>
</svg>
